<svg xmlns="http://www.w3.org/2000/svg" xmlns:xlink="http://www.w3.org/1999/xlink" width="55.846" height="65.843" viewBox="0 0 55.846 65.843">
  <defs>
    <filter id="Union_48" x="8" y="0" width="39.001" height="59.999" filterUnits="userSpaceOnUse">
      <feOffset dy="3" input="SourceAlpha"/>
      <feGaussianBlur stdDeviation="3" result="blur"/>
      <feFlood flood-opacity="0.161"/>
      <feComposite operator="in" in2="blur"/>
      <feComposite in="SourceGraphic"/>
    </filter>
    <filter id="Subtraction_1" x="0" y="33.187" width="55.846" height="32.656" filterUnits="userSpaceOnUse">
      <feOffset dy="3" input="SourceAlpha"/>
      <feGaussianBlur stdDeviation="3" result="blur-2"/>
      <feFlood flood-opacity="0.161"/>
      <feComposite operator="in" in2="blur-2"/>
      <feComposite in="SourceGraphic"/>
    </filter>
  </defs>
  <g id="Group_6575" data-name="Group 6575" transform="translate(8.902 6.469)">
    <g transform="matrix(1, 0, 0, 1, -8.9, -6.47)" filter="url(#Union_48)">
      <g id="Union_48-2" data-name="Union 48" transform="translate(19 8)" fill="#df303e">
        <path d="M 8.575201034545898 38.9989013671875 C 5.037300586700439 38.9989013671875 2.159000635147095 36.12100982666016 2.159000635147095 32.58359909057617 L 2.159000635147095 26.52583885192871 C 0.3658115863800049 26.20629119873047 -0.9999993443489075 24.6356143951416 -0.9999993443489075 22.75200080871582 L -0.9999993443489075 20.76300048828125 C -0.9999993443489075 16.25916862487793 2.150500774383545 12.47718906402588 6.36322021484375 11.50489807128906 C 3.911842823028564 10.59715747833252 2.159000635147095 8.22569751739502 2.159000635147095 5.450400829315186 C 2.159000635147095 1.893640637397766 5.037300586700439 -0.9999993443489075 8.575201034545898 -0.9999993443489075 C 12.1131010055542 -0.9999993443489075 14.99140071868896 1.893640637397766 14.99140071868896 5.450400829315186 C 14.99140071868896 8.247838020324707 13.21058940887451 10.63493061065674 10.72849178314209 11.5263032913208 C 14.89577102661133 12.53151988983154 18.00100135803223 16.29146194458008 18.00100135803223 20.76300048828125 L 18.00100135803223 22.75200080871582 C 18.00100135803223 24.58272171020508 16.71058654785156 26.11782455444336 14.99140071868896 26.49596977233887 L 14.99140071868896 32.58359909057617 C 14.99140071868896 36.12100982666016 12.1131010055542 38.9989013671875 8.575201034545898 38.9989013671875 Z" stroke="none"/>
        <path d="M 8.575201034545898 37.9989013671875 C 11.56680107116699 37.9989013671875 13.99140071868896 35.57429885864258 13.99140071868896 32.58359909057617 L 13.99140071868896 25.58520126342773 L 14.16690063476562 25.58520126342773 C 15.73200035095215 25.58520126342773 17.00100135803223 24.31620025634766 17.00100135803223 22.75200080871582 L 17.00100135803223 20.76300048828125 C 17.00100135803223 16.06860160827637 13.19490051269531 12.26250076293945 8.500500679016113 12.26250076293945 C 3.806100606918335 12.26250076293945 6.790161251046811e-07 16.06860160827637 6.790161251046811e-07 20.76300048828125 L 6.790161251046811e-07 22.75200080871582 C 6.790161251046811e-07 24.31620025634766 1.269000649452209 25.58520126342773 2.833200693130493 25.58520126342773 L 3.159000635147095 25.58520126342773 L 3.159000635147095 32.58359909057617 C 3.159000635147095 35.57429885864258 5.584500789642334 37.9989013671875 8.575201034545898 37.9989013671875 M 8.575201034545898 10.89990043640137 C 11.56680107116699 10.89990043640137 13.99140071868896 8.460000991821289 13.99140071868896 5.450400829315186 C 13.99140071868896 2.439900636672974 11.56680107116699 6.83593725625542e-07 8.575201034545898 6.83593725625542e-07 C 5.584500789642334 6.83593725625542e-07 3.159000635147095 2.439900636672974 3.159000635147095 5.450400829315186 C 3.159000635147095 8.460000991821289 5.584500789642334 10.89990043640137 8.575201034545898 10.89990043640137 M 8.575201034545898 39.9989013671875 C 4.485890865325928 39.9989013671875 1.159000635147095 36.67240905761719 1.159000635147095 32.58359909057617 L 1.159000635147095 27.28625106811523 C -0.6832691431045532 26.60375595092773 -1.999999284744263 24.82869529724121 -1.999999284744263 22.75200080871582 L -1.999999284744263 20.76300048828125 C -1.999999284744263 16.59295654296875 0.4437972009181976 12.9826602935791 3.974081516265869 11.288987159729 C 2.260083913803101 9.923274993896484 1.159000635147095 7.813614845275879 1.159000635147095 5.450400829315186 C 1.159000635147095 1.342240691184998 4.485890865325928 -1.999999284744263 8.575201034545898 -1.999999284744263 C 12.66451072692871 -1.999999284744263 15.99140071868896 1.342240691184998 15.99140071868896 5.450400829315186 C 15.99140071868896 7.839688777923584 14.86590671539307 9.969782829284668 13.11938571929932 11.33390331268311 C 16.59994316101074 13.04585456848145 19.00100135803223 16.62935638427734 19.00100135803223 20.76300048828125 L 19.00100135803223 22.75200080871582 C 19.00100135803223 24.77192687988281 17.75510406494141 26.5064640045166 15.99140071868896 27.22782325744629 L 15.99140071868896 32.58359909057617 C 15.99140071868896 36.67240905761719 12.66451072692871 39.9989013671875 8.575201034545898 39.9989013671875 Z" stroke="none" fill="#fff"/>
      </g>
    </g>
    <g transform="matrix(1, 0, 0, 1, -8.9, -6.47)" filter="url(#Subtraction_1)">
      <path id="Subtraction_1-2" data-name="Subtraction 1" d="M18.923,14.656C8.489,14.656,0,11.239,0,7.039,0,5.5,1.131,4.023,3.271,2.758A25.008,25.008,0,0,1,11.687,0a7.475,7.475,0,0,0-.066.994v.471a7.38,7.38,0,1,0,14.761,0V.994a7.481,7.481,0,0,0-.063-.967c7,1.2,11.527,3.951,11.527,7.012C37.846,11.239,29.357,14.656,18.923,14.656Z" transform="translate(9 39.19)" fill="rgba(0,0,0,0.4)"/>
    </g>
  </g>
</svg>
